# Blender v2.82 (sub 7) OBJ File: 'token.blend'
# www.blender.org
mtllib token.mtl
o Cube_Cube.001
v -0.300000 0.050000 0.300000
v 0.300000 0.050000 -0.300000
v -0.300000 0.050000 -0.300000
v -0.425000 0.035000 0.256951
v -0.255000 0.035000 0.428251
v -0.375208 0.035000 0.378079
v -0.255000 0.035000 -0.428251
v -0.425000 0.035000 -0.256951
v -0.375208 0.035000 -0.378079
v 0.255000 0.035000 0.428251
v 0.425000 0.035000 0.256951
v 0.375208 0.035000 0.378079
v 0.425000 0.035000 -0.256951
v 0.255000 0.035000 -0.428251
v 0.375208 0.035000 -0.378079
v 0.300000 0.050000 0.300000
v 0.290000 0.030000 -0.290000
v -0.290000 0.030000 -0.290000
v -0.290000 0.030000 0.290000
v 0.290000 0.030000 0.290000
v -0.300000 0.031000 0.300000
v -0.300000 0.031000 -0.300000
v 0.300000 0.031000 -0.300000
v 0.300000 0.031000 0.300000
v -0.300000 0.049000 -0.300000
v 0.300000 0.049000 -0.300000
v 0.300000 0.049000 0.300000
v -0.300000 0.049000 0.300000
v 0.300000 0.030000 -0.300000
v -0.300000 0.030000 -0.300000
v -0.300000 0.030000 0.300000
v 0.300000 0.030000 0.300000
v -0.298185 0.020000 0.497107
v 0.298185 0.020000 0.497107
v 0.438751 0.020000 0.438867
v -0.438751 0.020000 -0.438867
v -0.496976 0.020000 -0.298264
v 0.496976 0.020000 0.298264
v 0.496976 0.020000 -0.298264
v -0.438751 0.020000 0.438867
v 0.438751 0.020000 -0.438867
v 0.298185 0.020000 -0.497107
v -0.298185 0.020000 -0.497107
v -0.496976 0.020000 0.298264
v -0.300000 -0.050000 0.300000
v 0.300000 -0.050000 -0.300000
v -0.300000 -0.050000 -0.300000
v -0.425000 -0.035000 0.256951
v -0.255000 -0.035000 0.428251
v -0.375208 -0.035000 0.378079
v -0.255000 -0.035000 -0.428251
v -0.425000 -0.035000 -0.256951
v -0.375208 -0.035000 -0.378079
v 0.255000 -0.035000 0.428251
v 0.425000 -0.035000 0.256951
v 0.375208 -0.035000 0.378079
v 0.425000 -0.035000 -0.256951
v 0.255000 -0.035000 -0.428251
v 0.375208 -0.035000 -0.378079
v 0.300000 -0.050000 0.300000
v -0.300000 0.000000 0.300000
v 0.300000 0.000000 -0.300000
v -0.300000 0.000000 -0.300000
v -0.500000 0.000000 0.300000
v -0.300000 0.000000 0.500000
v -0.441421 0.000000 0.441421
v -0.300000 0.000000 -0.500000
v -0.500000 0.000000 -0.300000
v -0.441421 0.000000 -0.441421
v 0.300000 0.000000 0.500000
v 0.500000 0.000000 0.300000
v 0.441421 0.000000 0.441421
v 0.500000 0.000000 -0.300000
v 0.300000 0.000000 -0.500000
v 0.441421 0.000000 -0.441421
v 0.300000 0.000000 0.300000
v 0.290000 -0.030000 -0.290000
v -0.290000 -0.030000 -0.290000
v -0.290000 -0.030000 0.290000
v 0.290000 -0.030000 0.290000
v -0.300000 -0.031000 0.300000
v -0.300000 -0.031000 -0.300000
v 0.300000 -0.031000 -0.300000
v 0.300000 -0.031000 0.300000
v -0.300000 -0.049000 -0.300000
v 0.300000 -0.049000 -0.300000
v 0.300000 -0.049000 0.300000
v -0.300000 -0.049000 0.300000
v 0.300000 -0.030000 -0.300000
v -0.300000 -0.030000 -0.300000
v -0.300000 -0.030000 0.300000
v 0.300000 -0.030000 0.300000
v -0.298185 -0.020000 0.497107
v 0.298185 -0.020000 0.497107
v 0.438751 -0.020000 0.438867
v -0.438751 -0.020000 -0.438867
v -0.496976 -0.020000 -0.298264
v 0.496976 -0.020000 0.298264
v 0.496976 -0.020000 -0.298264
v -0.438751 -0.020000 0.438867
v 0.438751 -0.020000 -0.438867
v 0.298185 -0.020000 -0.497107
v -0.298185 -0.020000 -0.497107
v -0.496976 -0.020000 0.298264
vt 0.607468 0.357420
vt 0.894049 0.357420
vt 0.872555 0.412940
vt 0.628961 0.412940
vt 0.953753 0.338784
vt 0.929971 0.391220
vt 0.571546 0.391220
vt 0.547763 0.338784
vt 0.547763 0.116316
vt 0.571546 0.063879
vt 0.628961 0.042160
vt 0.607468 0.097680
vt 0.872555 0.042160
vt 0.929971 0.063879
vt 0.953753 0.116316
vt 0.894049 0.097680
vt 0.815049 0.270456
vt 0.815049 0.010716
vt 0.815526 0.010716
vt 0.815526 0.270456
vt 0.736000 0.333953
vt 0.736000 0.075784
vt 0.745553 0.074998
vt 0.745553 0.334738
vt 0.736000 0.394804
vt 0.745553 0.395960
vt 0.795227 0.333987
vt 0.795227 0.394854
vt 0.785674 0.395960
vt 0.785674 0.334738
vt 0.775166 0.075750
vt 0.775166 0.333987
vt 0.765613 0.334738
vt 0.765613 0.074998
vt 0.736000 0.014932
vt 0.745553 0.013777
vt 0.775166 0.394854
vt 0.765613 0.395960
vt 0.775166 0.014882
vt 0.765613 0.013777
vt 0.715939 0.333953
vt 0.715939 0.075784
vt 0.725492 0.074998
vt 0.725492 0.334738
vt 0.795227 0.014882
vt 0.795227 0.075750
vt 0.785674 0.074998
vt 0.785674 0.013777
vt 0.715939 0.014932
vt 0.725492 0.013777
vt 0.715939 0.394804
vt 0.725492 0.395960
vt 0.288969 0.989177
vt 0.011941 0.989177
vt 0.011941 0.738095
vt 0.288969 0.738095
vt 0.836543 0.010716
vt 0.836543 0.270456
vt 0.836065 0.270456
vt 0.836065 0.010716
vt 0.875231 0.270456
vt 0.875231 0.010716
vt 0.875709 0.010716
vt 0.875709 0.270456
vt 0.825079 0.270456
vt 0.825079 0.010716
vt 0.825557 0.010716
vt 0.825557 0.270456
vt 0.816482 0.270456
vt 0.816482 0.010716
vt 0.866634 0.270456
vt 0.866634 0.010716
vt 0.845140 0.010716
vt 0.845140 0.270456
vt 0.806451 0.270456
vt 0.806451 0.010716
vt 0.805974 0.270456
vt 0.805974 0.010716
vt 0.845618 0.010716
vt 0.845618 0.270456
vt 0.866156 0.270456
vt 0.866156 0.010716
vt 0.816004 0.270456
vt 0.816004 0.010716
vt 0.293745 0.993506
vt 0.007165 0.993506
vt 0.007165 0.733766
vt 0.293745 0.733766
vt 0.608335 0.442748
vt 0.541195 0.417536
vt 0.960321 0.417536
vt 0.893182 0.442748
vt 0.513385 0.356669
vt 0.513385 0.098431
vt 0.541195 0.037564
vt 0.988131 0.356668
vt 0.960321 0.037564
vt 0.988131 0.098431
vt 0.608334 0.012352
vt 0.893182 0.012352
vt 0.607468 0.096088
vt 0.628961 0.040567
vt 0.872555 0.040567
vt 0.894049 0.096088
vt 0.929971 0.062287
vt 0.953753 0.114724
vt 0.547763 0.114724
vt 0.571546 0.062287
vt 0.547763 0.337192
vt 0.607468 0.355828
vt 0.628961 0.411348
vt 0.571546 0.389628
vt 0.872555 0.411348
vt 0.894049 0.355828
vt 0.953753 0.337192
vt 0.929971 0.389628
vt 0.796421 0.270456
vt 0.795943 0.270456
vt 0.795943 0.010716
vt 0.796421 0.010716
vt 0.881284 0.357143
vt 0.881284 0.097403
vt 0.976811 0.097403
vt 0.976811 0.357143
vt 0.881284 0.010823
vt 0.948832 0.036181
vt 0.948832 0.418364
vt 0.881284 0.443723
vt 0.594703 0.443723
vt 0.527155 0.418364
vt 0.499176 0.357143
vt 0.594703 0.357143
vt 0.499176 0.097403
vt 0.527155 0.036181
vt 0.594703 0.010823
vt 0.594703 0.097403
vt 0.755105 0.333953
vt 0.755105 0.075784
vt 0.755105 0.394804
vt 0.776121 0.333987
vt 0.776121 0.394854
vt 0.756061 0.075750
vt 0.756061 0.333987
vt 0.755105 0.014932
vt 0.756061 0.394854
vt 0.756061 0.014882
vt 0.735045 0.333953
vt 0.735045 0.075784
vt 0.776121 0.014882
vt 0.776121 0.075750
vt 0.735045 0.014932
vt 0.735045 0.394804
vt 0.288969 0.465368
vt 0.288969 0.716450
vt 0.011941 0.716450
vt 0.011941 0.465368
vt 0.835110 0.010716
vt 0.835587 0.010716
vt 0.835587 0.270456
vt 0.835110 0.270456
vt 0.856603 0.270456
vt 0.856126 0.270456
vt 0.856126 0.010716
vt 0.856603 0.010716
vt 0.846573 0.270456
vt 0.846095 0.270456
vt 0.846095 0.010716
vt 0.846573 0.010716
vt 0.855170 0.270456
vt 0.855170 0.010716
vt 0.865201 0.270456
vt 0.865201 0.010716
vt 0.826512 0.010716
vt 0.826512 0.270456
vt 0.805018 0.270456
vt 0.805018 0.010716
vt 0.805496 0.270456
vt 0.805496 0.010716
vt 0.826034 0.010716
vt 0.826035 0.270456
vt 0.865678 0.270456
vt 0.865678 0.010716
vt 0.855648 0.270456
vt 0.855648 0.010716
vt 0.007165 0.461039
vt 0.293745 0.461039
vt 0.293745 0.720779
vt 0.007165 0.720779
vt 0.541195 0.035972
vt 0.608334 0.010760
vt 0.893182 0.010760
vt 0.960321 0.035972
vt 0.513385 0.355076
vt 0.513385 0.096839
vt 0.541195 0.415944
vt 0.988131 0.096839
vt 0.988131 0.355076
vt 0.960321 0.415943
vt 0.608335 0.441155
vt 0.893182 0.441155
vn 0.2435 0.9385 0.2447
vn -0.2435 0.9385 0.2447
vn 0.0289 0.9869 -0.1584
vn -0.0289 0.9869 -0.1584
vn 0.1553 0.9874 -0.0289
vn 0.1103 0.9877 -0.1111
vn -0.1103 0.9877 -0.1111
vn -0.1553 0.9874 -0.0289
vn -0.1553 0.9874 0.0289
vn -0.1103 0.9877 0.1111
vn -0.0289 0.9869 0.1584
vn 0.2435 0.9385 -0.2447
vn 0.0289 0.9869 0.1584
vn 0.1103 0.9877 0.1111
vn 0.1553 0.9874 0.0289
vn -0.2435 0.9385 -0.2447
vn 0.7071 0.0000 0.7071
vn 0.7071 0.0000 -0.7071
vn 0.5773 0.5773 -0.5773
vn 0.5773 0.5773 0.5773
vn 0.1456 0.6611 0.7360
vn -0.1456 0.6611 0.7360
vn -0.1836 0.4183 0.8895
vn 0.1836 0.4183 0.8895
vn 0.5383 0.6480 0.5387
vn 0.6500 0.3957 0.6488
vn -0.7328 0.6648 -0.1447
vn -0.5383 0.6480 -0.5387
vn -0.6500 0.3957 -0.6488
vn -0.8894 0.4188 -0.1830
vn 0.7328 0.6648 -0.1447
vn 0.7328 0.6648 0.1447
vn 0.8894 0.4188 0.1830
vn 0.8894 0.4188 -0.1830
vn -0.5383 0.6480 0.5387
vn -0.6500 0.3957 0.6488
vn 0.5383 0.6480 -0.5387
vn 0.6500 0.3957 -0.6488
vn -0.1456 0.6611 -0.7360
vn 0.1456 0.6611 -0.7360
vn 0.1836 0.4183 -0.8895
vn -0.1836 0.4183 -0.8895
vn -0.7328 0.6648 0.1447
vn -0.8894 0.4188 0.1830
vn 0.0000 1.0000 0.0000
vn -0.7071 0.0000 0.7071
vn -0.5773 0.5773 0.5773
vn -0.7071 0.0000 -0.7071
vn -0.5773 0.5773 -0.5773
vn 0.2435 -0.9385 0.2447
vn -0.0289 -0.9869 -0.1584
vn 0.0289 -0.9869 -0.1584
vn -0.2435 -0.9385 0.2447
vn 0.1103 -0.9877 -0.1111
vn 0.1553 -0.9874 -0.0289
vn -0.1553 -0.9874 -0.0289
vn -0.1103 -0.9877 -0.1111
vn -0.1553 -0.9874 0.0289
vn 0.2435 -0.9385 -0.2447
vn -0.0289 -0.9869 0.1584
vn -0.1103 -0.9877 0.1111
vn 0.0289 -0.9869 0.1584
vn -0.2435 -0.9385 -0.2447
vn 0.1553 -0.9874 0.0289
vn 0.1103 -0.9877 0.1111
vn 0.5773 -0.5773 0.5773
vn 0.5773 -0.5773 -0.5773
vn 0.1456 -0.6611 0.7360
vn -0.1456 -0.6611 0.7360
vn 0.5383 -0.6480 0.5387
vn -0.7328 -0.6648 -0.1447
vn -0.5383 -0.6480 -0.5387
vn 0.7328 -0.6648 -0.1447
vn 0.7328 -0.6648 0.1447
vn -0.5383 -0.6480 0.5387
vn 0.5383 -0.6480 -0.5387
vn -0.1456 -0.6611 -0.7360
vn 0.1456 -0.6611 -0.7360
vn -0.7328 -0.6648 0.1447
vn 0.0000 -1.0000 0.0000
vn -0.5773 -0.5773 0.5773
vn -0.5773 -0.5773 -0.5773
usemtl Material.001
s 1
f 3/1/1 2/2/2 14/3/3 7/4/4
f 2/2/2 13/5/5 15/6/6 14/3/3
f 3/1/1 7/4/4 9/7/7 8/8/8
f 4/9/9 6/10/10 5/11/11 1/12/12
f 10/13/13 12/14/14 11/15/15 16/16/16
f 10/13/13 16/16/16 1/12/12 5/11/11
f 1/12/12 3/1/1 8/8/8 4/9/9
f 2/2/2 16/16/16 11/15/15 13/5/5
f 22/17/17 21/18/18 31/19/19 30/20/20
f 34/21/21 33/22/22 65/23/23 70/24/24
f 35/25/25 34/21/21 70/24/24 72/26/26
f 37/27/27 36/28/28 69/29/29 68/30/30
f 39/31/31 38/32/32 71/33/33 73/34/34
f 33/22/22 40/35/35 66/36/36 65/23/23
f 38/32/32 35/37/25 72/38/26 71/33/33
f 41/39/37 39/31/31 73/34/34 75/40/38
f 43/41/39 42/42/40 74/43/41 67/44/42
f 40/45/35 44/46/43 64/47/44 66/48/36
f 44/46/43 37/27/27 68/30/30 64/47/44
f 42/42/40 41/49/37 75/50/38 74/43/41
f 36/51/28 43/41/39 67/44/42 69/52/29
f 17/53/45 18/54/45 19/55/45 20/56/45
f 23/57/46 22/58/17 30/59/20 29/60/47
f 24/61/48 23/62/46 29/63/47 32/64/49
f 21/65/18 24/66/48 32/67/49 31/68/19
f 28/69/18 27/70/48 24/66/48 21/65/18
f 27/71/48 26/72/46 23/62/46 24/61/48
f 26/73/46 25/74/17 22/58/17 23/57/46
f 25/75/17 28/76/18 21/18/18 22/17/17
f 3/77/1 1/78/12 28/76/18 25/75/17
f 2/79/2 3/80/1 25/74/17 26/73/46
f 16/81/16 2/82/2 26/72/46 27/71/48
f 1/83/12 16/84/16 27/70/48 28/69/18
f 18/54/45 17/53/45 29/85/47 30/86/20
f 20/56/45 19/55/45 31/87/19 32/88/49
f 19/55/45 18/54/45 30/86/20 31/87/19
f 17/53/45 20/56/45 32/88/49 29/85/47
f 9/7/7 7/4/4 43/89/39 36/90/28
f 14/3/3 15/6/6 41/91/37 42/92/40
f 4/9/9 8/8/8 37/93/27 44/94/43
f 6/10/10 4/9/9 44/94/43 40/95/35
f 7/4/4 14/3/3 42/92/40 43/89/39
f 15/6/6 13/5/5 39/96/31 41/91/37
f 11/15/15 12/14/14 35/97/25 38/98/32
f 5/11/11 6/10/10 40/95/35 33/99/22
f 13/5/5 11/15/15 38/98/32 39/96/31
f 8/8/8 9/7/7 36/90/28 37/93/27
f 12/14/14 10/13/13 34/100/21 35/97/25
f 10/13/13 5/11/11 33/99/22 34/100/21
f 47/101/50 51/102/51 58/103/52 46/104/53
f 46/104/53 58/103/52 59/105/54 57/106/55
f 47/101/50 52/107/56 53/108/57 51/102/51
f 48/109/58 45/110/59 49/111/60 50/112/61
f 54/113/62 60/114/63 55/115/64 56/116/65
f 54/113/62 49/111/60 45/110/59 60/114/63
f 45/110/59 48/109/58 52/107/56 47/101/50
f 46/104/53 57/106/55 55/115/64 60/114/63
f 82/117/17 90/118/66 91/119/67 81/120/18
f 63/121/45 62/122/45 74/123/41 67/124/42
f 62/122/45 73/125/34 75/126/38 74/123/41
f 63/121/45 67/124/42 69/127/29 68/128/30
f 64/129/44 66/130/36 65/131/23 61/132/45
f 70/133/24 72/134/26 71/135/33 76/136/45
f 70/133/24 76/136/45 61/132/45 65/131/23
f 61/132/45 63/121/45 68/128/30 64/129/44
f 62/122/45 76/136/45 71/135/33 73/125/34
f 62/122/45 63/121/45 61/132/45 76/136/45
f 94/137/68 70/24/24 65/23/23 93/138/69
f 95/139/70 72/26/26 70/24/24 94/137/68
f 97/140/71 68/30/30 69/29/29 96/141/72
f 99/142/73 73/34/34 71/33/33 98/143/74
f 93/138/69 65/23/23 66/36/36 100/144/75
f 98/143/74 71/33/33 72/38/26 95/145/70
f 101/146/76 75/40/38 73/34/34 99/142/73
f 103/147/77 67/44/42 74/43/41 102/148/78
f 100/149/75 66/48/36 64/47/44 104/150/79
f 104/150/79 64/47/44 68/30/30 97/140/71
f 102/148/78 74/43/41 75/50/38 101/151/76
f 96/152/72 69/52/29 67/44/42 103/147/77
f 77/153/80 80/154/80 79/155/80 78/156/80
f 83/157/46 89/158/81 90/159/66 82/160/17
f 84/161/48 92/162/82 89/163/81 83/164/46
f 81/165/18 91/166/67 92/167/82 84/168/48
f 88/169/18 81/165/18 84/168/48 87/170/48
f 87/171/48 84/161/48 83/164/46 86/172/46
f 86/173/46 83/157/46 82/160/17 85/174/17
f 85/175/17 82/117/17 81/120/18 88/176/18
f 47/177/50 85/175/17 88/176/18 45/178/59
f 46/179/53 86/173/46 85/174/17 47/180/50
f 60/181/63 87/171/48 86/172/46 46/182/53
f 45/183/59 88/169/18 87/170/48 60/184/63
f 78/156/80 90/185/66 89/186/81 77/153/80
f 80/154/80 92/187/82 91/188/67 79/155/80
f 79/155/80 91/188/67 90/185/66 78/156/80
f 77/153/80 89/186/81 92/187/82 80/154/80
f 53/108/57 96/189/72 103/190/77 51/102/51
f 58/103/52 102/191/78 101/192/76 59/105/54
f 48/109/58 104/193/79 97/194/71 52/107/56
f 50/112/61 100/195/75 104/193/79 48/109/58
f 51/102/51 103/190/77 102/191/78 58/103/52
f 59/105/54 101/192/76 99/196/73 57/106/55
f 55/115/64 98/197/74 95/198/70 56/116/65
f 49/111/60 93/199/69 100/195/75 50/112/61
f 57/106/55 99/196/73 98/197/74 55/115/64
f 52/107/56 97/194/71 96/189/72 53/108/57
f 56/116/65 95/198/70 94/200/68 54/113/62
f 54/113/62 94/200/68 93/199/69 49/111/60
