# Blender v2.80 (sub 75) OBJ File: 'clink.blend'
# www.blender.org
mtllib clink.mtl
o Cube
v 0.500000 2.100000 -0.800000
v 0.450000 0.100000 -0.720000
v 0.450000 2.027046 -0.045285
v 0.450000 0.100000 0.720000
v -0.500000 2.100000 -0.800000
v -0.450000 0.100000 -0.720000
v -0.450000 2.027046 -0.045285
v -0.450000 0.100000 0.720000
v -0.500000 0.100000 -0.800000
v -0.500000 0.100000 0.800000
v 0.500000 0.100000 -0.800000
v 0.500000 0.100000 0.800000
v -0.450000 0.000000 -0.720000
v -0.450000 0.000000 0.720000
v 0.450000 0.000000 -0.720000
v 0.450000 0.000000 0.720000
v 0.500000 1.100000 -0.800000
v -0.450000 1.172954 0.595285
v 0.450000 1.172954 0.595285
v -0.500000 1.100000 -0.800000
v -0.500000 1.100000 0.650000
v -0.500000 2.100000 -0.100000
v 0.500000 2.100000 -0.100000
v 0.500000 1.100000 0.650000
v -0.450000 1.112954 -0.384715
v -0.450000 1.967046 -0.525285
v 0.450000 1.967046 -0.525285
v 0.450000 1.112954 -0.384715
vt 0.692270 0.965517
vt 0.692270 0.620690
vt 0.841829 0.620690
vt 0.841829 0.965517
vt 0.494504 0.924170
vt 0.341952 0.793486
vt 0.347179 0.689655
vt 0.494503 0.712710
vt 0.512928 0.657328
vt 0.341952 0.495690
vt 0.341952 0.344828
vt 0.512928 0.344828
vt 0.647055 1.000000
vt 0.647055 0.689655
vt 0.664153 0.689655
vt 0.664153 1.000000
vt 0.512928 0.344828
vt 0.341952 0.344828
vt 0.341952 0.193966
vt 0.512928 0.032328
vt 0.688087 0.620690
vt 0.688087 0.965517
vt 0.017095 0.723106
vt 0.324809 0.723106
vt 0.341905 0.740347
vt 0.000000 0.740347
vt 0.017095 0.412761
vt 0.000000 0.395520
vt 0.324809 0.412761
vt 0.341905 0.395519
vt 0.683904 0.310345
vt 0.683903 0.000000
vt 0.991618 0.000000
vt 0.991618 0.310345
vt 0.681251 1.000000
vt 0.681250 0.689655
vt 0.681669 0.689655
vt 0.681669 1.000000
vt 1.000000 0.620690
vt 1.000000 0.931034
vt 0.984898 0.931034
vt 0.984898 0.620690
vt 0.664153 1.000000
vt 0.664153 0.689655
vt 0.681250 0.689655
vt 0.681250 1.000000
vt 0.683903 0.620690
vt 0.683903 0.965517
vt 0.683904 0.344828
vt 0.683903 0.000000
vt 0.683904 0.689655
vt 0.683903 0.344828
vt 0.000000 0.395520
vt 0.000000 0.228074
vt 0.341952 0.228074
vt 0.341952 0.395519
vt 0.324854 0.211436
vt 0.324854 0.016639
vt 0.341952 0.000000
vt 0.017098 0.016639
vt 0.000000 0.000000
vt 0.017098 0.211436
vt 0.841829 0.620690
vt 0.984898 0.620690
vt 0.984898 0.931034
vt 0.841829 0.931034
vt 0.494504 0.820340
vt 0.647055 0.689655
vt 0.647055 0.901115
vt 0.499731 0.924170
vt 0.893537 0.310345
vt 0.893537 0.620690
vt 0.683903 0.620690
vt 0.683903 0.310345
vt 0.996279 0.310345
vt 0.996279 0.620690
vt 0.893537 0.620690
vt 0.893537 0.310345
vn 0.0000 1.0000 0.0000
vn -1.0000 0.0000 0.0000
vn 1.0000 0.0000 0.0000
vn 0.0000 0.0000 -1.0000
vn 0.0000 -1.0000 0.0000
vn 0.0000 0.0000 1.0000
vn 0.0000 0.1483 0.9889
vn 0.0000 0.6000 0.8000
vn 0.0000 0.1624 0.9867
vn 0.0000 0.9981 -0.0611
vn 0.0000 -0.9923 0.1240
usemtl Material
s off
f 1/1/1 5/2/1 22/3/1 23/4/1
f 19/5/2 3/6/2 27/7/2 28/8/2
f 21/9/2 22/10/2 5/11/2 20/12/2
f 2/13/3 4/14/3 16/15/3 15/16/3
f 17/17/3 1/18/3 23/19/3 24/20/3
f 20/21/4 5/2/4 1/1/4 17/22/4
f 6/23/5 8/24/5 10/25/5 9/26/5
f 2/27/5 6/23/5 9/26/5 11/28/5
f 8/24/5 4/29/5 12/30/5 10/25/5
f 4/29/5 2/27/5 11/28/5 12/30/5
f 13/31/5 15/32/5 16/33/5 14/34/5
f 6/35/4 2/36/4 15/37/4 13/38/4
f 4/39/6 8/40/6 14/41/6 16/42/6
f 8/43/2 6/44/2 13/45/2 14/46/2
f 9/47/4 20/21/4 17/22/4 11/48/4
f 11/49/3 17/17/3 24/20/3 12/50/3
f 10/51/2 21/9/2 20/12/2 9/52/2
f 12/53/7 24/54/7 21/55/7 10/56/7
f 18/57/8 7/58/8 22/59/8 21/55/8
f 7/58/8 3/60/8 23/61/8 22/59/8
f 3/60/8 19/62/8 24/54/8 23/61/8
f 19/62/8 18/57/8 21/55/8 24/54/8
f 28/63/9 27/64/9 26/65/9 25/66/9
f 7/67/3 18/68/3 25/69/3 26/70/3
f 18/71/10 19/72/10 28/73/10 25/74/10
f 3/75/11 7/76/11 26/77/11 27/78/11
