# Blender v2.80 (sub 75) OBJ File: ''
# www.blender.org
mtllib 6m_wall.mtl
o Cube_Cube.001
v 3.000000 2.000000 -0.150000
v 3.000000 0.000000 -0.150000
v 3.000000 2.000000 0.150000
v 3.000000 0.000000 0.150000
v -3.000000 2.000000 -0.150000
v -3.000000 0.000000 -0.150000
v -3.000000 2.000000 0.150000
v -3.000000 0.000000 0.150000
vt 0.651490 0.954470
vt 0.651490 0.045530
vt 0.696937 0.045530
vt 0.696937 0.954470
vt 0.348510 0.045530
vt 0.348510 0.954470
vt 0.303063 0.954470
vt 0.303063 0.045530
vt 0.000083 0.954470
vt 0.000084 0.045530
vt 0.651490 0.999917
vt 0.348510 0.999917
vt 0.348510 0.000084
vt 0.651490 0.000083
vn 0.0000 1.0000 0.0000
vn 0.0000 -1.0000 0.0000
vn 0.0000 0.0000 1.0000
vn 1.0000 0.0000 0.0000
vn 0.0000 0.0000 -1.0000
vn -1.0000 0.0000 0.0000
usemtl Material.001
s off
f 1/1/1 5/2/1 7/3/1 3/4/1
f 6/5/2 2/6/2 4/7/2 8/8/2
f 4/7/3 3/9/3 7/10/3 8/8/3
f 2/6/4 1/1/4 3/11/4 4/12/4
f 6/5/5 5/2/5 1/1/5 2/6/5
f 8/13/6 7/14/6 5/2/6 6/5/6
